#N canvas 332 102 923 535 10;
#X floatatom 624 92 0 0 0 0 - - -;
#X obj 624 120 / 100;
#X floatatom 575 67 0 0 0 0 - - -;
#X obj 575 96 / 100;
#X obj 393 -99 gemhead;
#X obj 393 195 pix_texture;
#X msg 415 321 4;
#X floatatom 528 30 0 0 0 0 - - -;
#X obj 528 58 / 100;
#X obj 393 173 pix_gain;
#X obj 458 147 pack 0 0 0;
#X msg 490 118 bang;
#X obj 415 28 vsl 15 128 0 1 0 0 empty empty empty 20 8 0 8 -262144
-1 -1 0 1;
#X obj 394 293 scale;
#X obj 154 383 pack \$1 \$2 \$3;
#X floatatom 42 275 5 1 10 0 - - -;
#X obj 111 299 t b i;
#X obj 170 302 t b i;
#X obj 394 355 cube;
#X obj 191 51 adc~;
#X obj 209 89 env~;
#X floatatom 209 117 5 1 10 0 - - -;
#X obj 209 142 - 60;
#X obj 393 -53 pix_image claudio.jpg;
#X obj 209 169 moses 10;
#X obj 254 194 - 10;
#X floatatom 107 268 5 0 0 0 - - -;
#X msg 44 242 3;
#X msg 105 238 3;
#X msg 157 238 1;
#X obj 64 177 loadbang;
#N canvas 450 220 575 370 gemwin 0;
#X obj 103 122 tgl 15 0 \$0-gemstart \$0-gemstart empty 17 7 0 10 -262144
-1 -1 1 1;
#X obj 103 161 r \$0-gemstart;
#X obj 103 182 select 1 0;
#X msg 103 214 create \, 1;
#X msg 178 215 destroy;
#X obj 103 239 t a;
#X obj 319 54 inlet;
#X obj 319 255 gemwin;
#X obj 319 100 t a a;
#X obj 319 287 outlet;
#X obj 351 128 route create destroy;
#X obj 351 150 t b;
#X msg 351 172 1;
#X obj 391 150 t b;
#X msg 391 172 0;
#X obj 351 195 t f;
#X msg 351 219 set \$1;
#X text 119 122 rendering;
#X msg 414 221 perspec -1 1 -1 1 1 100;
#X obj 434 189 loadbang;
#X connect 1 0 2 0;
#X connect 2 0 3 0;
#X connect 2 1 4 0;
#X connect 3 0 5 0;
#X connect 4 0 5 0;
#X connect 5 0 8 0;
#X connect 6 0 8 0;
#X connect 7 0 9 0;
#X connect 8 0 7 0;
#X connect 8 1 10 0;
#X connect 10 0 11 0;
#X connect 10 1 13 0;
#X connect 11 0 12 0;
#X connect 12 0 15 0;
#X connect 13 0 14 0;
#X connect 14 0 15 0;
#X connect 15 0 16 0;
#X connect 16 0 0 0;
#X connect 18 0 7 0;
#X connect 19 0 18 0;
#X coords 0 -1 1 1 85 40 1 100 100;
#X restore 738 314 pd gemwin;
#X text 29 -22 Qualquer duvida sobre esse fluxograma envie um email
para jandila@gmail.com (Jarbas Jacome);
#X text 9 -107 Cubo distorcido por voz;
#X text 448 -104 <- objeto principal do Gem responsavel por passar
o comando de desenho para os objetos que deverao ser desenhados.;
#X text 536 -58 <- carrega a imagem a partir do arquivo. para experimentar
outra imagem \, basta substituir o nome do arquivo \, desde que o novo
nome corresponda a um arquivo localizado no mesmo diretorio (pasta)
que este fluxograma.;
#X text 412 3 aumenta/diminui valores de cor;
#X text 556 30 <- quantidade de vermelho;
#X text 605 64 <- quantidade de verde;
#X text 653 93 <- quantidade de azul;
#X text 444 323 <- tamanho inicial do cubo.;
#X text 436 293 <- distorce geometricamente o cubo.;
#X text 474 195 <- transforma a imagem em uma textura.;
#X text 542 149 <- transforma os 3 valores em uma lista que eh enviada
como mensagem para o terceiro parametro de pix_gain.;
#X text 230 47 <- microfone;
#X text 244 86 <- calcula amplitude;
#X text 266 154 <- normaliza valor;
#X text 283 166 de amplitude;
#X text 36 155 abre este arquivo no Pd;
#X text 35 144 dispara um bang assim que;
#X text 242 384 <- transforma os 3 valores em uma lista que eh enviada
como mensagem para o terceiro parametro de pix_gain.;
#X text 234 237 <- valores iniciais da distorcao do cubo.;
#X text 30 -85 Este fluxograma foi desenvolvido em Palmas \, durante
a 1a. Semana de Educacao e Arte Digital de Tocantins na oficina Sistemas
Interativos de Tempo Real junto com Claudio Montanari e demais participantes
da oficina;
#X obj 738 239 loadbang;
#X msg 738 266 create;
#X obj 792 289 tgl 15 0 empty empty empty 17 7 0 10 -262144 -1 -1 1
1;
#X msg 792 265 1;
#X msg 657 265 \; pd dsp 1;
#X connect 0 0 1 0;
#X connect 1 0 10 2;
#X connect 1 0 11 0;
#X connect 2 0 3 0;
#X connect 3 0 10 1;
#X connect 3 0 11 0;
#X connect 4 0 23 0;
#X connect 5 0 13 0;
#X connect 6 0 18 1;
#X connect 7 0 8 0;
#X connect 8 0 10 0;
#X connect 9 0 5 0;
#X connect 10 0 9 2;
#X connect 11 0 10 0;
#X connect 12 0 9 1;
#X connect 13 0 18 0;
#X connect 14 0 13 2;
#X connect 15 0 14 0;
#X connect 16 0 14 0;
#X connect 16 1 14 1;
#X connect 17 0 14 0;
#X connect 17 1 14 2;
#X connect 19 0 20 0;
#X connect 19 1 20 0;
#X connect 20 0 21 0;
#X connect 21 0 22 0;
#X connect 22 0 24 0;
#X connect 23 0 9 0;
#X connect 24 1 25 0;
#X connect 25 0 17 0;
#X connect 26 0 16 0;
#X connect 27 0 15 0;
#X connect 28 0 26 0;
#X connect 29 0 13 1;
#X connect 30 0 28 0;
#X connect 30 0 27 0;
#X connect 30 0 29 0;
#X connect 30 0 6 0;
#X connect 53 0 54 0;
#X connect 53 0 56 0;
#X connect 53 0 57 0;
#X connect 54 0 31 0;
#X connect 55 0 31 0;
#X connect 56 0 55 0;
