#N canvas 571 27 659 677 12;
#X obj 25 62 gemhead;
#X obj 25 571 rectangle 4 3;
#X obj 25 536 pix_texture;
#X obj 25 153 pix_video;
#X msg 68 122 device 1;
#N canvas 162 133 570 420 serin 0;
#X obj 205 60 cnv 20 20 20 empty \$0-open-canvas 1 4 10 0 16 -233017
-1 0;
#X obj 60 61 hradio 18 1 1 8 empty empty empty 0 -6 0 8 -225271 -1
-1 1;
#X obj 60 13 inlet;
#X msg 200 202 label \$1;
#X obj 200 180 makefilename %d;
#X obj 59 108 int;
#X obj 59 337 outlet;
#X msg 201 306 set \$1 \$2;
#X obj 59 266 trigger bang anything;
#X obj 201 286 list;
#X obj 200 225 send \$0-open-canvas;
#X msg 60 210 device \$1;
#X connect 1 0 5 0;
#X connect 2 0 1 0;
#X connect 3 0 10 0;
#X connect 4 0 3 0;
#X connect 5 0 4 0;
#X connect 5 0 11 0;
#X connect 7 0 6 0;
#X connect 8 0 6 0;
#X connect 8 1 9 0;
#X connect 9 0 7 0;
#X connect 11 0 8 0;
#X coords 0 -1 1 1 165 20 1 60 60;
#X restore 68 98 pd serin;
#N canvas 340 107 682 322 gemwin 0;
#X obj 102 122 tgl 15 0 \$0-gemstart \$0-gemstart empty 17 7 0 10 -262144
-1 -1 1 1;
#X obj 102 161 r \$0-gemstart;
#X obj 102 182 select 1 0;
#X msg 102 214 create \, 1;
#X msg 177 215 destroy;
#X obj 102 239 t a;
#X obj 318 54 inlet;
#X obj 318 255 gemwin;
#X obj 318 100 t a a;
#X obj 318 287 outlet;
#X obj 350 128 route create destroy;
#X obj 350 150 t b;
#X msg 350 172 1;
#X obj 390 150 t b;
#X msg 390 172 0;
#X obj 350 195 t f;
#X msg 350 219 set \$1;
#X text 118 122 rendering;
#X connect 1 0 2 0;
#X connect 2 0 3 0;
#X connect 2 1 4 0;
#X connect 3 0 5 0;
#X connect 4 0 5 0;
#X connect 5 0 8 0;
#X connect 6 0 8 0;
#X connect 7 0 9 0;
#X connect 8 0 7 0;
#X connect 8 1 10 0;
#X connect 10 0 11 0;
#X connect 10 1 13 0;
#X connect 11 0 12 0;
#X connect 12 0 15 0;
#X connect 13 0 14 0;
#X connect 14 0 15 0;
#X connect 15 0 16 0;
#X connect 16 0 0 0;
#X coords 0 -1 1 1 85 40 1 100 100;
#X restore 557 190 pd gemwin;
#X text 84 56 <- objeto principal do Gem responsavel por passar o comando
de desenho para os objetos que deverao ser desenhados.;
#X text 236 97 <- escolhe qual a webcam USB sera usada;
#X text 129 570 <- desenha o retangulo com o video capturado como textura.
;
#X text 118 534 <- transforma os quadros da webcam (bitmaps) em uma
textura.;
#X text 103 152 <- captura os quadros da webcam.;
#X obj 25 331 pix_blob;
#X text 91 330 <- localiza onde esta o centro geometrico da regiao
mais clara da imagem;
#X floatatom 69 241 5 0 0 0 - - -;
#X obj 69 265 / 100;
#X text 115 240 <- esse valor serve para ajustar o valor minimo de
luminosidade a ser considerado pelo objeto pix_blob;
#X text 122 290 <- transforma em preto os pixels cujo valor de luminosidade
eh menor que o determinado pelo numero acima;
#X floatatom 94 389 5 0 0 0 - - -;
#X floatatom 42 366 5 0 0 0 - - -;
#X text 133 388 <-- posicao Y do centro geometrico da regiao mais clara
;
#X text 88 364 <-- posicao X do centro geometrico da regiao mais clara
;
#X text 31 12 Qualquer duvida sobre esse fluxograma envie um email
para jandila@gmail.com (Jarbas Jacome);
#X obj 557 106 loadbang;
#X msg 557 133 create;
#X obj 611 156 tgl 15 0 empty empty empty 17 7 0 10 -262144 -1 -1 1
1;
#X msg 611 132 1;
#X msg 479 139 \; pd dsp 1;
#X obj 42 469 s posX;
#X text 142 501 <-- envia valor da posicao Y de 0 a 1;
#X text 87 468 <-- envia valor da posicao X de 0 a 1;
#X text 9 -78 Theremin controlado por luz na escala blues;
#X text 32 -58 Este fluxograma foi desenvolvido durante a aula de computacao
musical no CIn-UFPE baseado no Theremin controlado por luz criado em
Palmas \, na 1a Semana de Educacao e Arte Digital de Tocantins.;
#X obj 25 293 pix_threshold;
#X obj 69 183 loadbang;
#X msg 69 213 50;
#X obj 94 503 s posY;
#X obj 94 414 - 1;
#X obj 94 440 abs;
#X obj 167 181 cnv 15 355 55 empty empty empty 20 12 0 14 -233017 -66577
0;
#X text 171 179 Esse subpatch eh responsavel pelo som do Theremin;
#X obj 172 211 intervalos_musicais_escalas_maior_e_blues;
#X text 171 192 Clique nele para abri-lo.;
#X text 125 414 <-- inverte o sentido do eixo Y para que quando a pessoa
suba a luz o theremin aumente a amplitude e quando a pessoa desca a
luz o theremin diminua a amplitude;
#X connect 0 0 3 0;
#X connect 2 0 1 0;
#X connect 3 0 33 0;
#X connect 4 0 3 0;
#X connect 5 0 4 0;
#X connect 12 0 2 0;
#X connect 12 1 19 0;
#X connect 12 2 18 0;
#X connect 14 0 15 0;
#X connect 15 0 33 1;
#X connect 18 0 37 0;
#X connect 19 0 28 0;
#X connect 23 0 24 0;
#X connect 23 0 26 0;
#X connect 23 0 27 0;
#X connect 24 0 6 0;
#X connect 25 0 6 0;
#X connect 26 0 25 0;
#X connect 33 0 12 0;
#X connect 34 0 35 0;
#X connect 35 0 14 0;
#X connect 37 0 38 0;
#X connect 38 0 36 0;
